# xmcd
#
# Track frame offsets:
# 150
# 13168
# 28271
# 41720
# 51901
# 67701
# 85964
# 103034
# 124600
# 142238
#
# Disc length: 2114 seconds
#
#
# Revision: 0
# Processed by: cddbd v1.5.2PL0 Copyright (c) Steve Scherf et al.
# Submitted via: FreeRIP 2.90 
#
DISCID=8b08400a
DTITLE=Sacha Arcanjo - Feito Bicho
DYEAR=1900
DGENRE=Blues
TTITLE0=Feito Bicho
TTITLE1=Desconfiado
TTITLE2=Miroros
TTITLE3=Filho da Ansia
TTITLE4=Nesses dias de viver
TTITLE5=Chao Americano
TTITLE6=Jangadeiro
TTITLE7=Projeção
TTITLE8=Voce nao gosta mais de mim
TTITLE9=O maior carente
EXTD=
EXTT0=
EXTT1=
EXTT2=
EXTT3=
EXTT4=
EXTT5=
EXTT6=
EXTT7=
EXTT8=
EXTT9=
PLAYORDER=
